<mxfile host="app.diagrams.net" modified="2022-08-22T11:15:50.929Z" agent="5.0 (Windows NT 10.0; Win64; x64) AppleWebKit/537.36 (KHTML, like Gecko) Chrome/104.0.0.0 Safari/537.36" etag="4QrOQycGJ7_AfLxCj205" version="20.2.5" type="github">
  <diagram id="DK5hyHkuXr4FKM32YabK" name="Sayfa -1">
    <mxGraphModel dx="1221" dy="644" grid="1" gridSize="10" guides="1" tooltips="1" connect="1" arrows="1" fold="1" page="1" pageScale="1" pageWidth="827" pageHeight="1169" math="0" shadow="0">
      <root>
        <mxCell id="0" />
        <mxCell id="1" parent="0" />
        <mxCell id="uDI_ZheOM8eNRVQ7jaLN-23" style="edgeStyle=orthogonalEdgeStyle;rounded=0;orthogonalLoop=1;jettySize=auto;html=1;entryX=0.5;entryY=0;entryDx=0;entryDy=0;startArrow=diamondThin;startFill=1;endArrow=none;endFill=0;" edge="1" parent="1" source="uDI_ZheOM8eNRVQ7jaLN-1" target="uDI_ZheOM8eNRVQ7jaLN-14">
          <mxGeometry relative="1" as="geometry" />
        </mxCell>
        <mxCell id="uDI_ZheOM8eNRVQ7jaLN-1" value="Company" style="swimlane;fontStyle=1;align=center;verticalAlign=top;childLayout=stackLayout;horizontal=1;startSize=26;horizontalStack=0;resizeParent=1;resizeParentMax=0;resizeLast=0;collapsible=1;marginBottom=0;" vertex="1" parent="1">
          <mxGeometry x="200" y="70" width="160" height="98" as="geometry" />
        </mxCell>
        <mxCell id="uDI_ZheOM8eNRVQ7jaLN-2" value="companyName: String&#xa;adress: String&#xa;mail : String" style="text;strokeColor=none;fillColor=none;align=left;verticalAlign=top;spacingLeft=4;spacingRight=4;overflow=hidden;rotatable=0;points=[[0,0.5],[1,0.5]];portConstraint=eastwest;" vertex="1" parent="uDI_ZheOM8eNRVQ7jaLN-1">
          <mxGeometry y="26" width="160" height="64" as="geometry" />
        </mxCell>
        <mxCell id="uDI_ZheOM8eNRVQ7jaLN-3" value="" style="line;strokeWidth=1;fillColor=none;align=left;verticalAlign=middle;spacingTop=-1;spacingLeft=3;spacingRight=3;rotatable=0;labelPosition=right;points=[];portConstraint=eastwest;" vertex="1" parent="uDI_ZheOM8eNRVQ7jaLN-1">
          <mxGeometry y="90" width="160" height="8" as="geometry" />
        </mxCell>
        <mxCell id="uDI_ZheOM8eNRVQ7jaLN-5" value="Floor" style="swimlane;fontStyle=1;align=center;verticalAlign=top;childLayout=stackLayout;horizontal=1;startSize=26;horizontalStack=0;resizeParent=1;resizeParentMax=0;resizeLast=0;collapsible=1;marginBottom=0;" vertex="1" parent="1">
          <mxGeometry x="530" y="130" width="160" height="86" as="geometry" />
        </mxCell>
        <mxCell id="uDI_ZheOM8eNRVQ7jaLN-6" value="+ field: type" style="text;strokeColor=none;fillColor=none;align=left;verticalAlign=top;spacingLeft=4;spacingRight=4;overflow=hidden;rotatable=0;points=[[0,0.5],[1,0.5]];portConstraint=eastwest;" vertex="1" parent="uDI_ZheOM8eNRVQ7jaLN-5">
          <mxGeometry y="26" width="160" height="26" as="geometry" />
        </mxCell>
        <mxCell id="uDI_ZheOM8eNRVQ7jaLN-7" value="" style="line;strokeWidth=1;fillColor=none;align=left;verticalAlign=middle;spacingTop=-1;spacingLeft=3;spacingRight=3;rotatable=0;labelPosition=right;points=[];portConstraint=eastwest;" vertex="1" parent="uDI_ZheOM8eNRVQ7jaLN-5">
          <mxGeometry y="52" width="160" height="8" as="geometry" />
        </mxCell>
        <mxCell id="uDI_ZheOM8eNRVQ7jaLN-8" value="+ method(type): type" style="text;strokeColor=none;fillColor=none;align=left;verticalAlign=top;spacingLeft=4;spacingRight=4;overflow=hidden;rotatable=0;points=[[0,0.5],[1,0.5]];portConstraint=eastwest;" vertex="1" parent="uDI_ZheOM8eNRVQ7jaLN-5">
          <mxGeometry y="60" width="160" height="26" as="geometry" />
        </mxCell>
        <mxCell id="uDI_ZheOM8eNRVQ7jaLN-9" style="edgeStyle=orthogonalEdgeStyle;rounded=0;orthogonalLoop=1;jettySize=auto;html=1;entryX=0;entryY=0.5;entryDx=0;entryDy=0;endArrow=none;endFill=0;startArrow=diamondThin;startFill=1;" edge="1" parent="1" source="uDI_ZheOM8eNRVQ7jaLN-2" target="uDI_ZheOM8eNRVQ7jaLN-5">
          <mxGeometry relative="1" as="geometry" />
        </mxCell>
        <mxCell id="uDI_ZheOM8eNRVQ7jaLN-12" value="12" style="text;strokeColor=none;fillColor=none;align=left;verticalAlign=top;spacingLeft=4;spacingRight=4;overflow=hidden;rotatable=0;points=[[0,0.5],[1,0.5]];portConstraint=eastwest;" vertex="1" parent="1">
          <mxGeometry x="500" y="150" width="100" height="26" as="geometry" />
        </mxCell>
        <mxCell id="uDI_ZheOM8eNRVQ7jaLN-65" style="edgeStyle=orthogonalEdgeStyle;rounded=0;orthogonalLoop=1;jettySize=auto;html=1;entryX=0;entryY=0.5;entryDx=0;entryDy=0;startArrow=none;startFill=0;endArrow=none;endFill=0;" edge="1" parent="1" source="uDI_ZheOM8eNRVQ7jaLN-14">
          <mxGeometry relative="1" as="geometry">
            <mxPoint x="600" y="369" as="targetPoint" />
          </mxGeometry>
        </mxCell>
        <mxCell id="uDI_ZheOM8eNRVQ7jaLN-14" value="Elevator" style="swimlane;fontStyle=1;align=center;verticalAlign=top;childLayout=stackLayout;horizontal=1;startSize=26;horizontalStack=0;resizeParent=1;resizeParentMax=0;resizeLast=0;collapsible=1;marginBottom=0;" vertex="1" parent="1">
          <mxGeometry x="210" y="320" width="160" height="170" as="geometry" />
        </mxCell>
        <mxCell id="uDI_ZheOM8eNRVQ7jaLN-15" value="capacity : int" style="text;strokeColor=none;fillColor=none;align=left;verticalAlign=top;spacingLeft=4;spacingRight=4;overflow=hidden;rotatable=0;points=[[0,0.5],[1,0.5]];portConstraint=eastwest;" vertex="1" parent="uDI_ZheOM8eNRVQ7jaLN-14">
          <mxGeometry y="26" width="160" height="26" as="geometry" />
        </mxCell>
        <mxCell id="uDI_ZheOM8eNRVQ7jaLN-16" value="" style="line;strokeWidth=1;fillColor=none;align=left;verticalAlign=middle;spacingTop=-1;spacingLeft=3;spacingRight=3;rotatable=0;labelPosition=right;points=[];portConstraint=eastwest;" vertex="1" parent="uDI_ZheOM8eNRVQ7jaLN-14">
          <mxGeometry y="52" width="160" height="8" as="geometry" />
        </mxCell>
        <mxCell id="uDI_ZheOM8eNRVQ7jaLN-17" value="moveUp()&#xa;moveDown()" style="text;strokeColor=none;fillColor=none;align=left;verticalAlign=top;spacingLeft=4;spacingRight=4;overflow=hidden;rotatable=0;points=[[0,0.5],[1,0.5]];portConstraint=eastwest;" vertex="1" parent="uDI_ZheOM8eNRVQ7jaLN-14">
          <mxGeometry y="60" width="160" height="110" as="geometry" />
        </mxCell>
        <mxCell id="uDI_ZheOM8eNRVQ7jaLN-24" value="5" style="text;strokeColor=none;fillColor=none;align=left;verticalAlign=top;spacingLeft=4;spacingRight=4;overflow=hidden;rotatable=0;points=[[0,0.5],[1,0.5]];portConstraint=eastwest;" vertex="1" parent="1">
          <mxGeometry x="260" y="294" width="100" height="26" as="geometry" />
        </mxCell>
        <mxCell id="uDI_ZheOM8eNRVQ7jaLN-29" style="edgeStyle=orthogonalEdgeStyle;rounded=0;orthogonalLoop=1;jettySize=auto;html=1;entryX=0;entryY=0.5;entryDx=0;entryDy=0;startArrow=none;startFill=0;endArrow=none;endFill=0;" edge="1" parent="1" source="uDI_ZheOM8eNRVQ7jaLN-25" target="uDI_ZheOM8eNRVQ7jaLN-15">
          <mxGeometry relative="1" as="geometry" />
        </mxCell>
        <mxCell id="uDI_ZheOM8eNRVQ7jaLN-25" value="User" style="swimlane;fontStyle=1;align=center;verticalAlign=top;childLayout=stackLayout;horizontal=1;startSize=26;horizontalStack=0;resizeParent=1;resizeParentMax=0;resizeLast=0;collapsible=1;marginBottom=0;" vertex="1" parent="1">
          <mxGeometry x="10" y="460" width="160" height="34" as="geometry" />
        </mxCell>
        <mxCell id="uDI_ZheOM8eNRVQ7jaLN-27" value="" style="line;strokeWidth=1;fillColor=none;align=left;verticalAlign=middle;spacingTop=-1;spacingLeft=3;spacingRight=3;rotatable=0;labelPosition=right;points=[];portConstraint=eastwest;" vertex="1" parent="uDI_ZheOM8eNRVQ7jaLN-25">
          <mxGeometry y="26" width="160" height="8" as="geometry" />
        </mxCell>
        <mxCell id="uDI_ZheOM8eNRVQ7jaLN-30" value="6" style="text;strokeColor=none;fillColor=none;align=left;verticalAlign=top;spacingLeft=4;spacingRight=4;overflow=hidden;rotatable=0;points=[[0,0.5],[1,0.5]];portConstraint=eastwest;" vertex="1" parent="1">
          <mxGeometry x="90" y="434" width="100" height="26" as="geometry" />
        </mxCell>
        <mxCell id="uDI_ZheOM8eNRVQ7jaLN-43" style="edgeStyle=orthogonalEdgeStyle;rounded=0;orthogonalLoop=1;jettySize=auto;html=1;startArrow=none;startFill=0;endArrow=block;endFill=0;" edge="1" parent="1" source="uDI_ZheOM8eNRVQ7jaLN-31" target="uDI_ZheOM8eNRVQ7jaLN-14">
          <mxGeometry relative="1" as="geometry" />
        </mxCell>
        <mxCell id="uDI_ZheOM8eNRVQ7jaLN-31" value="Door" style="swimlane;fontStyle=1;align=center;verticalAlign=top;childLayout=stackLayout;horizontal=1;startSize=26;horizontalStack=0;resizeParent=1;resizeParentMax=0;resizeLast=0;collapsible=1;marginBottom=0;" vertex="1" parent="1">
          <mxGeometry x="110" y="650" width="160" height="110" as="geometry" />
        </mxCell>
        <mxCell id="uDI_ZheOM8eNRVQ7jaLN-33" value="" style="line;strokeWidth=1;fillColor=none;align=left;verticalAlign=middle;spacingTop=-1;spacingLeft=3;spacingRight=3;rotatable=0;labelPosition=right;points=[];portConstraint=eastwest;" vertex="1" parent="uDI_ZheOM8eNRVQ7jaLN-31">
          <mxGeometry y="26" width="160" height="8" as="geometry" />
        </mxCell>
        <mxCell id="uDI_ZheOM8eNRVQ7jaLN-34" value="isOpen() : bool&#xa;isClose() : bool" style="text;strokeColor=none;fillColor=none;align=left;verticalAlign=top;spacingLeft=4;spacingRight=4;overflow=hidden;rotatable=0;points=[[0,0.5],[1,0.5]];portConstraint=eastwest;" vertex="1" parent="uDI_ZheOM8eNRVQ7jaLN-31">
          <mxGeometry y="34" width="160" height="76" as="geometry" />
        </mxCell>
        <mxCell id="uDI_ZheOM8eNRVQ7jaLN-44" style="edgeStyle=orthogonalEdgeStyle;rounded=0;orthogonalLoop=1;jettySize=auto;html=1;startArrow=none;startFill=0;endArrow=none;endFill=0;" edge="1" parent="1" source="uDI_ZheOM8eNRVQ7jaLN-35">
          <mxGeometry relative="1" as="geometry">
            <mxPoint x="290" y="570" as="targetPoint" />
            <Array as="points">
              <mxPoint x="380" y="570" />
            </Array>
          </mxGeometry>
        </mxCell>
        <mxCell id="uDI_ZheOM8eNRVQ7jaLN-35" value="FloorLight" style="swimlane;fontStyle=1;align=center;verticalAlign=top;childLayout=stackLayout;horizontal=1;startSize=26;horizontalStack=0;resizeParent=1;resizeParentMax=0;resizeLast=0;collapsible=1;marginBottom=0;" vertex="1" parent="1">
          <mxGeometry x="300" y="650" width="160" height="60" as="geometry" />
        </mxCell>
        <mxCell id="uDI_ZheOM8eNRVQ7jaLN-37" value="" style="line;strokeWidth=1;fillColor=none;align=left;verticalAlign=middle;spacingTop=-1;spacingLeft=3;spacingRight=3;rotatable=0;labelPosition=right;points=[];portConstraint=eastwest;" vertex="1" parent="uDI_ZheOM8eNRVQ7jaLN-35">
          <mxGeometry y="26" width="160" height="8" as="geometry" />
        </mxCell>
        <mxCell id="uDI_ZheOM8eNRVQ7jaLN-38" value="showFloor()" style="text;strokeColor=none;fillColor=none;align=left;verticalAlign=top;spacingLeft=4;spacingRight=4;overflow=hidden;rotatable=0;points=[[0,0.5],[1,0.5]];portConstraint=eastwest;" vertex="1" parent="uDI_ZheOM8eNRVQ7jaLN-35">
          <mxGeometry y="34" width="160" height="26" as="geometry" />
        </mxCell>
        <mxCell id="uDI_ZheOM8eNRVQ7jaLN-45" style="edgeStyle=orthogonalEdgeStyle;rounded=0;orthogonalLoop=1;jettySize=auto;html=1;startArrow=none;startFill=0;endArrow=none;endFill=0;" edge="1" parent="1" source="uDI_ZheOM8eNRVQ7jaLN-39">
          <mxGeometry relative="1" as="geometry">
            <mxPoint x="380" y="570" as="targetPoint" />
            <Array as="points">
              <mxPoint x="560" y="570" />
            </Array>
          </mxGeometry>
        </mxCell>
        <mxCell id="uDI_ZheOM8eNRVQ7jaLN-39" value="ControlPanel" style="swimlane;fontStyle=1;align=center;verticalAlign=top;childLayout=stackLayout;horizontal=1;startSize=26;horizontalStack=0;resizeParent=1;resizeParentMax=0;resizeLast=0;collapsible=1;marginBottom=0;" vertex="1" parent="1">
          <mxGeometry x="490" y="650" width="160" height="34" as="geometry" />
        </mxCell>
        <mxCell id="uDI_ZheOM8eNRVQ7jaLN-41" value="" style="line;strokeWidth=1;fillColor=none;align=left;verticalAlign=middle;spacingTop=-1;spacingLeft=3;spacingRight=3;rotatable=0;labelPosition=right;points=[];portConstraint=eastwest;" vertex="1" parent="uDI_ZheOM8eNRVQ7jaLN-39">
          <mxGeometry y="26" width="160" height="8" as="geometry" />
        </mxCell>
        <mxCell id="uDI_ZheOM8eNRVQ7jaLN-50" style="edgeStyle=orthogonalEdgeStyle;rounded=0;orthogonalLoop=1;jettySize=auto;html=1;startArrow=none;startFill=0;endArrow=block;endFill=0;" edge="1" parent="1" source="uDI_ZheOM8eNRVQ7jaLN-46" target="uDI_ZheOM8eNRVQ7jaLN-39">
          <mxGeometry relative="1" as="geometry">
            <Array as="points">
              <mxPoint x="410" y="800" />
              <mxPoint x="570" y="800" />
            </Array>
          </mxGeometry>
        </mxCell>
        <mxCell id="uDI_ZheOM8eNRVQ7jaLN-46" value="TargetButton" style="swimlane;fontStyle=1;align=center;verticalAlign=top;childLayout=stackLayout;horizontal=1;startSize=26;horizontalStack=0;resizeParent=1;resizeParentMax=0;resizeLast=0;collapsible=1;marginBottom=0;" vertex="1" parent="1">
          <mxGeometry x="330" y="840" width="200" height="110" as="geometry" />
        </mxCell>
        <mxCell id="uDI_ZheOM8eNRVQ7jaLN-47" value="-targetFloor : int" style="text;strokeColor=none;fillColor=none;align=left;verticalAlign=top;spacingLeft=4;spacingRight=4;overflow=hidden;rotatable=0;points=[[0,0.5],[1,0.5]];portConstraint=eastwest;" vertex="1" parent="uDI_ZheOM8eNRVQ7jaLN-46">
          <mxGeometry y="26" width="200" height="26" as="geometry" />
        </mxCell>
        <mxCell id="uDI_ZheOM8eNRVQ7jaLN-48" value="" style="line;strokeWidth=1;fillColor=none;align=left;verticalAlign=middle;spacingTop=-1;spacingLeft=3;spacingRight=3;rotatable=0;labelPosition=right;points=[];portConstraint=eastwest;" vertex="1" parent="uDI_ZheOM8eNRVQ7jaLN-46">
          <mxGeometry y="52" width="200" height="8" as="geometry" />
        </mxCell>
        <mxCell id="uDI_ZheOM8eNRVQ7jaLN-49" value="setTargetFloor(targetFloor) : int&#xa;getTargetFloor(targetFloor) :int" style="text;strokeColor=none;fillColor=none;align=left;verticalAlign=top;spacingLeft=4;spacingRight=4;overflow=hidden;rotatable=0;points=[[0,0.5],[1,0.5]];portConstraint=eastwest;" vertex="1" parent="uDI_ZheOM8eNRVQ7jaLN-46">
          <mxGeometry y="60" width="200" height="50" as="geometry" />
        </mxCell>
        <mxCell id="uDI_ZheOM8eNRVQ7jaLN-60" style="edgeStyle=orthogonalEdgeStyle;rounded=0;orthogonalLoop=1;jettySize=auto;html=1;startArrow=none;startFill=0;endArrow=none;endFill=0;" edge="1" parent="1" source="uDI_ZheOM8eNRVQ7jaLN-51">
          <mxGeometry relative="1" as="geometry">
            <mxPoint x="570" y="790" as="targetPoint" />
            <Array as="points">
              <mxPoint x="760" y="800" />
              <mxPoint x="570" y="800" />
            </Array>
          </mxGeometry>
        </mxCell>
        <mxCell id="uDI_ZheOM8eNRVQ7jaLN-51" value="Emergency" style="swimlane;fontStyle=1;align=center;verticalAlign=top;childLayout=stackLayout;horizontal=1;startSize=26;horizontalStack=0;resizeParent=1;resizeParentMax=0;resizeLast=0;collapsible=1;marginBottom=0;" vertex="1" parent="1">
          <mxGeometry x="760" y="840" width="160" height="60" as="geometry" />
        </mxCell>
        <mxCell id="uDI_ZheOM8eNRVQ7jaLN-53" value="" style="line;strokeWidth=1;fillColor=none;align=left;verticalAlign=middle;spacingTop=-1;spacingLeft=3;spacingRight=3;rotatable=0;labelPosition=right;points=[];portConstraint=eastwest;" vertex="1" parent="uDI_ZheOM8eNRVQ7jaLN-51">
          <mxGeometry y="26" width="160" height="8" as="geometry" />
        </mxCell>
        <mxCell id="uDI_ZheOM8eNRVQ7jaLN-54" value="isEmergency() : bool" style="text;strokeColor=none;fillColor=none;align=left;verticalAlign=top;spacingLeft=4;spacingRight=4;overflow=hidden;rotatable=0;points=[[0,0.5],[1,0.5]];portConstraint=eastwest;" vertex="1" parent="uDI_ZheOM8eNRVQ7jaLN-51">
          <mxGeometry y="34" width="160" height="26" as="geometry" />
        </mxCell>
        <mxCell id="uDI_ZheOM8eNRVQ7jaLN-59" style="edgeStyle=orthogonalEdgeStyle;rounded=0;orthogonalLoop=1;jettySize=auto;html=1;startArrow=none;startFill=0;endArrow=none;endFill=0;" edge="1" parent="1" source="uDI_ZheOM8eNRVQ7jaLN-55">
          <mxGeometry relative="1" as="geometry">
            <mxPoint x="570" y="790" as="targetPoint" />
            <Array as="points">
              <mxPoint x="590" y="800" />
              <mxPoint x="570" y="800" />
            </Array>
          </mxGeometry>
        </mxCell>
        <mxCell id="uDI_ZheOM8eNRVQ7jaLN-55" value="DoorButton" style="swimlane;fontStyle=1;align=center;verticalAlign=top;childLayout=stackLayout;horizontal=1;startSize=26;horizontalStack=0;resizeParent=1;resizeParentMax=0;resizeLast=0;collapsible=1;marginBottom=0;" vertex="1" parent="1">
          <mxGeometry x="570" y="840" width="160" height="80" as="geometry" />
        </mxCell>
        <mxCell id="uDI_ZheOM8eNRVQ7jaLN-57" value="" style="line;strokeWidth=1;fillColor=none;align=left;verticalAlign=middle;spacingTop=-1;spacingLeft=3;spacingRight=3;rotatable=0;labelPosition=right;points=[];portConstraint=eastwest;" vertex="1" parent="uDI_ZheOM8eNRVQ7jaLN-55">
          <mxGeometry y="26" width="160" height="8" as="geometry" />
        </mxCell>
        <mxCell id="uDI_ZheOM8eNRVQ7jaLN-58" value="openDoor()&#xa;closeDoor()" style="text;strokeColor=none;fillColor=none;align=left;verticalAlign=top;spacingLeft=4;spacingRight=4;overflow=hidden;rotatable=0;points=[[0,0.5],[1,0.5]];portConstraint=eastwest;" vertex="1" parent="uDI_ZheOM8eNRVQ7jaLN-55">
          <mxGeometry y="34" width="160" height="46" as="geometry" />
        </mxCell>
        <mxCell id="uDI_ZheOM8eNRVQ7jaLN-66" style="edgeStyle=orthogonalEdgeStyle;rounded=0;orthogonalLoop=1;jettySize=auto;html=1;startArrow=none;startFill=0;endArrow=none;endFill=0;" edge="1" parent="1" source="uDI_ZheOM8eNRVQ7jaLN-61" target="uDI_ZheOM8eNRVQ7jaLN-5">
          <mxGeometry relative="1" as="geometry" />
        </mxCell>
        <mxCell id="uDI_ZheOM8eNRVQ7jaLN-79" style="edgeStyle=orthogonalEdgeStyle;rounded=0;orthogonalLoop=1;jettySize=auto;html=1;startArrow=none;startFill=0;endArrow=none;endFill=0;" edge="1" parent="1" source="uDI_ZheOM8eNRVQ7jaLN-61">
          <mxGeometry relative="1" as="geometry">
            <mxPoint x="860" y="369.0588235294118" as="targetPoint" />
          </mxGeometry>
        </mxCell>
        <mxCell id="uDI_ZheOM8eNRVQ7jaLN-61" value="ElevatorShaft" style="swimlane;fontStyle=1;align=center;verticalAlign=top;childLayout=stackLayout;horizontal=1;startSize=26;horizontalStack=0;resizeParent=1;resizeParentMax=0;resizeLast=0;collapsible=1;marginBottom=0;" vertex="1" parent="1">
          <mxGeometry x="600" y="346" width="160" height="34" as="geometry" />
        </mxCell>
        <mxCell id="uDI_ZheOM8eNRVQ7jaLN-63" value="" style="line;strokeWidth=1;fillColor=none;align=left;verticalAlign=middle;spacingTop=-1;spacingLeft=3;spacingRight=3;rotatable=0;labelPosition=right;points=[];portConstraint=eastwest;" vertex="1" parent="uDI_ZheOM8eNRVQ7jaLN-61">
          <mxGeometry y="26" width="160" height="8" as="geometry" />
        </mxCell>
        <mxCell id="uDI_ZheOM8eNRVQ7jaLN-71" style="edgeStyle=orthogonalEdgeStyle;rounded=0;orthogonalLoop=1;jettySize=auto;html=1;startArrow=none;startFill=0;endArrow=none;endFill=0;" edge="1" parent="1" source="uDI_ZheOM8eNRVQ7jaLN-67" target="uDI_ZheOM8eNRVQ7jaLN-5">
          <mxGeometry relative="1" as="geometry">
            <Array as="points">
              <mxPoint x="430" y="196" />
            </Array>
          </mxGeometry>
        </mxCell>
        <mxCell id="uDI_ZheOM8eNRVQ7jaLN-67" value="CallButton" style="swimlane;fontStyle=1;align=center;verticalAlign=top;childLayout=stackLayout;horizontal=1;startSize=26;horizontalStack=0;resizeParent=1;resizeParentMax=0;resizeLast=0;collapsible=1;marginBottom=0;" vertex="1" parent="1">
          <mxGeometry x="360" y="216" width="160" height="90" as="geometry" />
        </mxCell>
        <mxCell id="uDI_ZheOM8eNRVQ7jaLN-69" value="" style="line;strokeWidth=1;fillColor=none;align=left;verticalAlign=middle;spacingTop=-1;spacingLeft=3;spacingRight=3;rotatable=0;labelPosition=right;points=[];portConstraint=eastwest;" vertex="1" parent="uDI_ZheOM8eNRVQ7jaLN-67">
          <mxGeometry y="26" width="160" height="8" as="geometry" />
        </mxCell>
        <mxCell id="uDI_ZheOM8eNRVQ7jaLN-70" value="goUp()&#xa;goDown()" style="text;strokeColor=none;fillColor=none;align=left;verticalAlign=top;spacingLeft=4;spacingRight=4;overflow=hidden;rotatable=0;points=[[0,0.5],[1,0.5]];portConstraint=eastwest;" vertex="1" parent="uDI_ZheOM8eNRVQ7jaLN-67">
          <mxGeometry y="34" width="160" height="56" as="geometry" />
        </mxCell>
        <mxCell id="uDI_ZheOM8eNRVQ7jaLN-72" value="3" style="text;strokeColor=none;fillColor=none;align=left;verticalAlign=top;spacingLeft=4;spacingRight=4;overflow=hidden;rotatable=0;points=[[0,0.5],[1,0.5]];portConstraint=eastwest;" vertex="1" parent="1">
          <mxGeometry x="413" y="190" width="100" height="26" as="geometry" />
        </mxCell>
        <mxCell id="uDI_ZheOM8eNRVQ7jaLN-73" value="1" style="text;strokeColor=none;fillColor=none;align=left;verticalAlign=top;spacingLeft=4;spacingRight=4;overflow=hidden;rotatable=0;points=[[0,0.5],[1,0.5]];portConstraint=eastwest;" vertex="1" parent="1">
          <mxGeometry x="500" y="176" width="100" height="26" as="geometry" />
        </mxCell>
        <mxCell id="uDI_ZheOM8eNRVQ7jaLN-74" style="edgeStyle=orthogonalEdgeStyle;rounded=0;orthogonalLoop=1;jettySize=auto;html=1;startArrow=none;startFill=0;endArrow=none;endFill=0;" edge="1" parent="1" source="uDI_ZheOM8eNRVQ7jaLN-70" target="uDI_ZheOM8eNRVQ7jaLN-14">
          <mxGeometry relative="1" as="geometry" />
        </mxCell>
        <mxCell id="uDI_ZheOM8eNRVQ7jaLN-75" value="ShaftDoor" style="swimlane;fontStyle=1;align=center;verticalAlign=top;childLayout=stackLayout;horizontal=1;startSize=26;horizontalStack=0;resizeParent=1;resizeParentMax=0;resizeLast=0;collapsible=1;marginBottom=0;" vertex="1" parent="1">
          <mxGeometry x="860" y="330" width="160" height="120" as="geometry" />
        </mxCell>
        <mxCell id="uDI_ZheOM8eNRVQ7jaLN-77" value="" style="line;strokeWidth=1;fillColor=none;align=left;verticalAlign=middle;spacingTop=-1;spacingLeft=3;spacingRight=3;rotatable=0;labelPosition=right;points=[];portConstraint=eastwest;" vertex="1" parent="uDI_ZheOM8eNRVQ7jaLN-75">
          <mxGeometry y="26" width="160" height="8" as="geometry" />
        </mxCell>
        <mxCell id="uDI_ZheOM8eNRVQ7jaLN-78" value="openDoor()&#xa;closeDoor()" style="text;strokeColor=none;fillColor=none;align=left;verticalAlign=top;spacingLeft=4;spacingRight=4;overflow=hidden;rotatable=0;points=[[0,0.5],[1,0.5]];portConstraint=eastwest;" vertex="1" parent="uDI_ZheOM8eNRVQ7jaLN-75">
          <mxGeometry y="34" width="160" height="86" as="geometry" />
        </mxCell>
        <mxCell id="uDI_ZheOM8eNRVQ7jaLN-80" value="1" style="text;strokeColor=none;fillColor=none;align=left;verticalAlign=top;spacingLeft=4;spacingRight=4;overflow=hidden;rotatable=0;points=[[0,0.5],[1,0.5]];portConstraint=eastwest;" vertex="1" parent="1">
          <mxGeometry x="760" y="350" width="100" height="26" as="geometry" />
        </mxCell>
        <mxCell id="uDI_ZheOM8eNRVQ7jaLN-81" value="1" style="text;strokeColor=none;fillColor=none;align=left;verticalAlign=top;spacingLeft=4;spacingRight=4;overflow=hidden;rotatable=0;points=[[0,0.5],[1,0.5]];portConstraint=eastwest;" vertex="1" parent="1">
          <mxGeometry x="827" y="340" width="100" height="26" as="geometry" />
        </mxCell>
        <mxCell id="uDI_ZheOM8eNRVQ7jaLN-86" style="edgeStyle=orthogonalEdgeStyle;rounded=0;orthogonalLoop=1;jettySize=auto;html=1;startArrow=none;startFill=0;endArrow=none;endFill=0;" edge="1" parent="1" source="uDI_ZheOM8eNRVQ7jaLN-82" target="uDI_ZheOM8eNRVQ7jaLN-78">
          <mxGeometry relative="1" as="geometry" />
        </mxCell>
        <mxCell id="uDI_ZheOM8eNRVQ7jaLN-87" style="edgeStyle=orthogonalEdgeStyle;rounded=0;orthogonalLoop=1;jettySize=auto;html=1;startArrow=none;startFill=0;endArrow=none;endFill=0;" edge="1" parent="1" source="uDI_ZheOM8eNRVQ7jaLN-82" target="uDI_ZheOM8eNRVQ7jaLN-17">
          <mxGeometry relative="1" as="geometry">
            <Array as="points">
              <mxPoint x="1070" y="470" />
            </Array>
          </mxGeometry>
        </mxCell>
        <mxCell id="uDI_ZheOM8eNRVQ7jaLN-82" value="SignalLight" style="swimlane;fontStyle=1;align=center;verticalAlign=top;childLayout=stackLayout;horizontal=1;startSize=26;horizontalStack=0;resizeParent=1;resizeParentMax=0;resizeLast=0;collapsible=1;marginBottom=0;" vertex="1" parent="1">
          <mxGeometry x="990" y="530" width="160" height="130" as="geometry" />
        </mxCell>
        <mxCell id="uDI_ZheOM8eNRVQ7jaLN-83" value="floorNumber: int" style="text;strokeColor=none;fillColor=none;align=left;verticalAlign=top;spacingLeft=4;spacingRight=4;overflow=hidden;rotatable=0;points=[[0,0.5],[1,0.5]];portConstraint=eastwest;" vertex="1" parent="uDI_ZheOM8eNRVQ7jaLN-82">
          <mxGeometry y="26" width="160" height="26" as="geometry" />
        </mxCell>
        <mxCell id="uDI_ZheOM8eNRVQ7jaLN-84" value="" style="line;strokeWidth=1;fillColor=none;align=left;verticalAlign=middle;spacingTop=-1;spacingLeft=3;spacingRight=3;rotatable=0;labelPosition=right;points=[];portConstraint=eastwest;" vertex="1" parent="uDI_ZheOM8eNRVQ7jaLN-82">
          <mxGeometry y="52" width="160" height="8" as="geometry" />
        </mxCell>
        <mxCell id="uDI_ZheOM8eNRVQ7jaLN-85" value="isUp() : bool&#xa;isDown(): bool&#xa;isCome(): bool" style="text;strokeColor=none;fillColor=none;align=left;verticalAlign=top;spacingLeft=4;spacingRight=4;overflow=hidden;rotatable=0;points=[[0,0.5],[1,0.5]];portConstraint=eastwest;" vertex="1" parent="uDI_ZheOM8eNRVQ7jaLN-82">
          <mxGeometry y="60" width="160" height="70" as="geometry" />
        </mxCell>
        <mxCell id="uDI_ZheOM8eNRVQ7jaLN-88" value="1" style="text;strokeColor=none;fillColor=none;align=left;verticalAlign=top;spacingLeft=4;spacingRight=4;overflow=hidden;rotatable=0;points=[[0,0.5],[1,0.5]];portConstraint=eastwest;" vertex="1" parent="1">
          <mxGeometry x="370" y="450" width="100" height="26" as="geometry" />
        </mxCell>
        <mxCell id="uDI_ZheOM8eNRVQ7jaLN-89" value="1" style="text;strokeColor=none;fillColor=none;align=left;verticalAlign=top;spacingLeft=4;spacingRight=4;overflow=hidden;rotatable=0;points=[[0,0.5],[1,0.5]];portConstraint=eastwest;" vertex="1" parent="1">
          <mxGeometry x="1040" y="504" width="100" height="26" as="geometry" />
        </mxCell>
        <mxCell id="uDI_ZheOM8eNRVQ7jaLN-90" value="1" style="text;strokeColor=none;fillColor=none;align=left;verticalAlign=top;spacingLeft=4;spacingRight=4;overflow=hidden;rotatable=0;points=[[0,0.5],[1,0.5]];portConstraint=eastwest;" vertex="1" parent="1">
          <mxGeometry x="1020" y="377" width="100" height="26" as="geometry" />
        </mxCell>
        <mxCell id="uDI_ZheOM8eNRVQ7jaLN-95" style="edgeStyle=orthogonalEdgeStyle;rounded=0;orthogonalLoop=1;jettySize=auto;html=1;startArrow=none;startFill=0;endArrow=none;endFill=0;" edge="1" parent="1" source="uDI_ZheOM8eNRVQ7jaLN-91" target="uDI_ZheOM8eNRVQ7jaLN-78">
          <mxGeometry relative="1" as="geometry" />
        </mxCell>
        <mxCell id="uDI_ZheOM8eNRVQ7jaLN-91" value="ArrivalBell" style="swimlane;fontStyle=1;align=center;verticalAlign=top;childLayout=stackLayout;horizontal=1;startSize=26;horizontalStack=0;resizeParent=1;resizeParentMax=0;resizeLast=0;collapsible=1;marginBottom=0;" vertex="1" parent="1">
          <mxGeometry x="1190" y="330" width="160" height="120" as="geometry" />
        </mxCell>
        <mxCell id="uDI_ZheOM8eNRVQ7jaLN-92" value="floorNumber : int" style="text;strokeColor=none;fillColor=none;align=left;verticalAlign=top;spacingLeft=4;spacingRight=4;overflow=hidden;rotatable=0;points=[[0,0.5],[1,0.5]];portConstraint=eastwest;" vertex="1" parent="uDI_ZheOM8eNRVQ7jaLN-91">
          <mxGeometry y="26" width="160" height="26" as="geometry" />
        </mxCell>
        <mxCell id="uDI_ZheOM8eNRVQ7jaLN-93" value="" style="line;strokeWidth=1;fillColor=none;align=left;verticalAlign=middle;spacingTop=-1;spacingLeft=3;spacingRight=3;rotatable=0;labelPosition=right;points=[];portConstraint=eastwest;" vertex="1" parent="uDI_ZheOM8eNRVQ7jaLN-91">
          <mxGeometry y="52" width="160" height="8" as="geometry" />
        </mxCell>
        <mxCell id="uDI_ZheOM8eNRVQ7jaLN-94" value="isCome(targetFloor): bool&#xa;getTargerFloor : int" style="text;strokeColor=none;fillColor=none;align=left;verticalAlign=top;spacingLeft=4;spacingRight=4;overflow=hidden;rotatable=0;points=[[0,0.5],[1,0.5]];portConstraint=eastwest;" vertex="1" parent="uDI_ZheOM8eNRVQ7jaLN-91">
          <mxGeometry y="60" width="160" height="60" as="geometry" />
        </mxCell>
        <mxCell id="uDI_ZheOM8eNRVQ7jaLN-97" value="1" style="text;strokeColor=none;fillColor=none;align=left;verticalAlign=top;spacingLeft=4;spacingRight=4;overflow=hidden;rotatable=0;points=[[0,0.5],[1,0.5]];portConstraint=eastwest;" vertex="1" parent="1">
          <mxGeometry x="1160" y="360" width="100" height="26" as="geometry" />
        </mxCell>
        <mxCell id="uDI_ZheOM8eNRVQ7jaLN-98" value="1" style="text;strokeColor=none;fillColor=none;align=left;verticalAlign=top;spacingLeft=4;spacingRight=4;overflow=hidden;rotatable=0;points=[[0,0.5],[1,0.5]];portConstraint=eastwest;" vertex="1" parent="1">
          <mxGeometry x="370" y="380" width="100" height="26" as="geometry" />
        </mxCell>
        <mxCell id="uDI_ZheOM8eNRVQ7jaLN-99" value="1" style="text;strokeColor=none;fillColor=none;align=left;verticalAlign=top;spacingLeft=4;spacingRight=4;overflow=hidden;rotatable=0;points=[[0,0.5],[1,0.5]];portConstraint=eastwest;" vertex="1" parent="1">
          <mxGeometry x="570" y="340" width="100" height="26" as="geometry" />
        </mxCell>
        <mxCell id="uDI_ZheOM8eNRVQ7jaLN-100" value="1" style="text;strokeColor=none;fillColor=none;align=left;verticalAlign=top;spacingLeft=4;spacingRight=4;overflow=hidden;rotatable=0;points=[[0,0.5],[1,0.5]];portConstraint=eastwest;" vertex="1" parent="1">
          <mxGeometry x="610" y="216" width="100" height="26" as="geometry" />
        </mxCell>
        <mxCell id="uDI_ZheOM8eNRVQ7jaLN-101" value="1" style="text;strokeColor=none;fillColor=none;align=left;verticalAlign=top;spacingLeft=4;spacingRight=4;overflow=hidden;rotatable=0;points=[[0,0.5],[1,0.5]];portConstraint=eastwest;" vertex="1" parent="1">
          <mxGeometry x="680" y="320" width="100" height="26" as="geometry" />
        </mxCell>
      </root>
    </mxGraphModel>
  </diagram>
</mxfile>
